<?xml version="1.0" standalone="no"?>
<!DOCTYPE svg PUBLIC "-//W3C//DTD SVG 20010904//EN"
 "http://www.w3.org/TR/2001/REC-SVG-20010904/DTD/svg10.dtd">
<svg version="1.0" xmlns="http://www.w3.org/2000/svg"
 width="200.000000pt" height="200.000000pt" viewBox="0 0 200.000000 200.000000"
 preserveAspectRatio="xMidYMid meet">
<metadata>
Created by potrace 1.14, written by Peter Selinger 2001-2017
</metadata>
<g transform="translate(0.000000,200.000000) scale(0.100000,-0.100000)"
fill="#000000" stroke="none">
<path d="M656 1810 c-57 -78 -87 -157 -94 -247 -6 -89 18 -193 60 -260 l30
-47 -30 -65 c-17 -36 -33 -78 -37 -93 -7 -36 -26 -36 -103 3 -97 48 -156 134
-172 250 -10 69 -31 99 -70 99 -62 0 -77 -74 -40 -193 28 -90 91 -180 162
-233 60 -44 151 -84 192 -84 20 0 26 -8 35 -47 7 -27 23 -68 37 -92 13 -24 24
-47 24 -52 0 -5 -19 -19 -42 -31 -36 -19 -58 -23 -138 -23 -103 0 -141 13
-221 76 -61 48 -119 30 -119 -38 0 -26 9 -38 60 -76 158 -119 367 -127 532
-21 26 17 28 17 85 -13 32 -17 73 -34 91 -38 42 -9 42 -29 0 -107 -51 -95
-134 -152 -249 -168 -69 -10 -99 -31 -99 -70 0 -59 61 -74 175 -45 161 42 288
168 328 325 14 53 14 53 75 75 34 12 73 30 86 39 36 23 43 21 65 -22 56 -110
41 -241 -40 -349 -43 -57 -47 -77 -23 -111 10 -15 25 -22 49 -22 29 0 39 8 78
60 59 78 88 156 94 250 6 92 -15 184 -57 253 -17 27 -30 52 -30 56 0 5 12 30
26 55 15 26 31 67 38 91 l11 44 54 -19 c67 -24 112 -58 151 -115 38 -55 47
-80 59 -156 12 -70 32 -99 71 -99 62 0 77 74 40 193 -48 156 -168 271 -322
311 -53 13 -53 14 -74 74 -11 33 -28 72 -37 86 -9 14 -17 30 -17 35 0 22 85
54 157 59 89 6 155 -14 232 -69 60 -43 76 -46 109 -23 23 16 29 53 12 84 -16
31 -128 99 -197 120 -118 36 -258 20 -358 -41 l-49 -31 -61 30 c-33 16 -75 33
-92 37 -41 8 -42 27 -8 95 53 105 131 160 254 179 72 12 101 32 101 71 0 59
-71 76 -181 44 -165 -49 -282 -166 -322 -325 -13 -50 -17 -55 -53 -65 -22 -6
-63 -23 -92 -38 -28 -14 -54 -26 -56 -26 -18 0 -50 93 -54 156 -6 91 15 162
69 233 21 28 39 62 39 75 0 31 -30 56 -68 56 -28 0 -38 -9 -76 -60z m414 -521
c149 -34 254 -197 221 -346 -37 -164 -188 -265 -349 -233 -158 32 -265 190
-233 346 33 167 194 271 361 233z"/>
</g>
</svg>
