<?xml version="1.0" standalone="no"?><!DOCTYPE svg PUBLIC "-//W3C//DTD SVG 1.1//EN" "http://www.w3.org/Graphics/SVG/1.1/DTD/svg11.dtd"><svg t="1621328677149" class="icon" viewBox="0 0 1024 1024" version="1.1" xmlns="http://www.w3.org/2000/svg" p-id="689" xmlns:xlink="http://www.w3.org/1999/xlink" width="200" height="200"><defs><style type="text/css"></style></defs><path d="M89.376 633.376a31.968 31.968 0 0 0 0 45.248l256 256a31.968 31.968 0 0 0 45.248 0 213.216 213.216 0 0 0 0-301.248 213.216 213.216 0 0 0-301.248 0M934.624 633.376a213.216 213.216 0 0 0-301.248 0 213.216 213.216 0 0 0 0 301.248 31.968 31.968 0 0 0 45.248 0l256-256a31.968 31.968 0 0 0 0-45.248" fill="#1BB5EC" p-id="690"></path><path d="M365.536 864.32L159.68 658.4a149.184 149.184 0 0 1 184.512 19.2c0.032 0.064-0.48-0.224 2.144 2.144a149.184 149.184 0 0 1 19.2 184.512zM192 914.72L109.248 832 176 765.248 258.752 848 192 914.752z m252.096-334.88a32 32 0 0 0-45.248 0l-32.736 32.768c-83.296-61.376-201.376-54.624-276.736 20.736a31.968 31.968 0 0 0 0 45.248L130.752 720l-89.376 89.376a31.968 31.968 0 0 0 0 45.248l128 128a32 32 0 0 0 45.248 0L304 893.248l41.376 41.376a32 32 0 0 0 45.248 0c75.36-75.36 82.112-193.44 20.736-276.736l32.736-32.768a31.968 31.968 0 0 0 0-45.248zM625.152 444.096l357.472-357.44a31.968 31.968 0 1 0-45.248-45.28l-357.44 357.472a31.968 31.968 0 1 0 45.216 45.248" fill="#364F6B" p-id="691"></path><path d="M832 914.752L765.248 848l82.752-82.752L914.752 832 832 914.752z m-173.568-50.464a149.28 149.28 0 0 1 19.2-184.48c0.064-0.064-0.16 0.416 2.112-2.112a149.024 149.024 0 0 1 184.576-19.232l-205.888 205.824z m234.816-144.32l41.376-41.344a31.968 31.968 0 0 0 0-45.248c-75.328-75.36-193.44-82.112-276.736-20.736L86.624 41.376a31.968 31.968 0 1 0-45.248 45.248l571.264 571.264c-61.344 83.296-54.624 201.408 20.736 276.736a31.968 31.968 0 0 0 45.248 0l41.376-41.376 89.376 89.376a31.968 31.968 0 0 0 45.248 0l128-128a31.968 31.968 0 0 0 0-45.248L893.248 720z" fill="#364F6B" p-id="692"></path></svg>